<svg width="190" height="197" viewBox="0 0 190 197" fill="none" xmlns="http://www.w3.org/2000/svg">
<path d="M-7.98649 0.703878C45.0532 1.31997 95.6758 22.9808 132.745 60.9212C169.814 98.8616 190.293 149.974 189.677 203.013L-10.3095 200.69L-7.98649 0.703878Z" fill="#BFE5F8"/>
<path d="M61.5745 130.558C61.5223 134.245 61.1839 137.542 60.5593 140.45C59.9559 143.338 59.0253 145.783 57.7677 147.787C56.51 149.79 54.8842 151.309 52.8902 152.343C50.8962 153.377 48.4931 153.875 45.6809 153.835C42.1604 153.785 39.2675 152.817 37.0024 150.93C34.7375 149.023 33.0778 146.312 32.0233 142.797C30.969 139.261 30.4767 135.034 30.5463 130.118C30.6159 125.202 31.1755 121.001 32.2249 117.516C33.2955 114.01 34.9794 111.335 37.2765 109.493C39.5737 107.65 42.5971 106.755 46.3467 106.808C49.888 106.858 52.7911 107.837 55.056 109.744C57.342 111.631 59.0121 114.343 60.0663 117.879C61.1417 121.394 61.6444 125.621 61.5745 130.558ZM37.9519 130.223C37.8973 134.077 38.1017 137.299 38.5651 139.889C39.0493 142.479 39.8759 144.429 41.045 145.737C42.2144 147.025 43.7886 147.682 45.7676 147.71C47.7465 147.738 49.3387 147.126 50.5441 145.872C51.7494 144.618 52.6308 142.703 53.1882 140.127C53.7663 137.552 54.0829 134.327 54.1377 130.452C54.192 126.619 53.977 123.408 53.4928 120.817C53.0086 118.227 52.182 116.277 51.0129 114.969C49.8441 113.64 48.2598 112.961 46.26 112.933C44.2602 112.904 42.6573 113.538 41.4513 114.834C40.2665 116.109 39.3954 118.034 38.838 120.61C38.3015 123.186 38.0061 126.39 37.9519 130.223ZM97.872 153.949L66.9376 153.511L67.0159 147.98L79.0283 136.149C81.3528 133.848 83.2665 131.865 84.7694 130.198C86.2726 128.511 87.3891 126.912 88.1189 125.402C88.8695 123.891 89.2575 122.24 89.2829 120.449C89.3141 118.241 88.7024 116.565 87.4476 115.422C86.1931 114.259 84.5243 113.662 82.4412 113.633C80.4622 113.604 78.6235 113.974 76.9249 114.742C75.2475 115.489 73.5029 116.569 71.691 117.981L67.7288 113.08C69.0148 112.015 70.3829 111.045 71.8329 110.169C73.3038 109.294 74.9386 108.609 76.7375 108.114C78.5366 107.597 80.5819 107.356 82.8734 107.388C85.7689 107.429 88.2613 107.985 90.3505 109.057C92.44 110.107 94.0342 111.557 95.1332 113.406C96.2529 115.255 96.7956 117.399 96.761 119.836C96.7262 122.294 96.2046 124.558 95.196 126.627C94.1874 128.696 92.7625 130.739 90.9213 132.754C89.0804 134.749 86.8932 136.917 84.3599 139.256L76.3451 146.862L76.3403 147.206L97.9631 147.512L97.872 153.949Z" fill="black"/>
</svg>
