<svg width="190" height="197" viewBox="0 0 190 197" fill="none" xmlns="http://www.w3.org/2000/svg">
<path d="M197.986 196.296C144.947 195.68 94.3242 174.019 57.2551 136.079C20.186 98.1384 -0.293115 47.0263 0.322978 -6.01336L200.309 -3.69038L197.986 196.296Z" fill="#BFE5F8"/>
<path d="M121.991 70.602C121.939 74.2891 121.601 77.5867 120.976 80.4948C120.373 83.3824 119.442 85.8278 118.185 87.8311C116.927 89.8343 115.301 91.3531 113.307 92.3875C111.313 93.4218 108.91 93.9191 106.098 93.8793C102.577 93.8295 99.6845 92.8613 97.4193 90.9749C95.1545 89.0676 93.4948 86.3564 92.4402 82.8411C91.386 79.305 90.8937 75.0788 90.9633 70.1627C91.0329 65.2465 91.5925 61.0457 92.6419 57.5602C93.7125 54.0541 95.3964 51.3798 97.6935 49.5371C99.9907 47.6945 103.014 46.7997 106.764 46.8528C110.305 46.9029 113.208 47.8816 115.473 49.7889C117.759 51.6756 119.429 54.387 120.483 57.9231C121.559 61.4387 122.061 65.665 121.991 70.602ZM98.3688 70.2675C98.3143 74.1213 98.5187 77.3433 98.9821 79.9334C99.4663 82.5239 100.293 84.4733 101.462 85.7816C102.631 87.0691 104.206 87.7269 106.185 87.7549C108.164 87.7829 109.756 87.17 110.961 85.9161C112.166 84.6622 113.048 82.7474 113.605 80.1717C114.183 77.5963 114.5 74.3713 114.555 70.4967C114.609 66.6637 114.394 63.452 113.91 60.8616C113.426 58.2711 112.599 56.3217 111.43 55.0134C110.261 53.6842 108.677 53.0055 106.677 52.9771C104.677 52.9488 103.074 53.5825 101.868 54.878C100.683 56.153 99.8124 58.0784 99.255 60.6541C98.7185 63.2301 98.4231 66.4346 98.3688 70.2675ZM157.038 58.7219C157.009 60.7842 156.567 62.5698 155.712 64.0787C154.857 65.5876 153.694 66.8212 152.222 67.7797C150.771 68.7175 149.095 69.3814 147.193 69.7712L147.19 69.9899C150.829 70.4998 153.563 71.6844 155.391 73.5438C157.24 75.4035 158.143 77.8437 158.1 80.8642C158.062 83.5098 157.394 85.8651 156.093 87.9302C154.793 89.9745 152.823 91.5718 150.181 92.722C147.54 93.8722 144.157 94.4181 140.032 94.3598C137.553 94.3247 135.254 94.0942 133.135 93.6683C131.036 93.2427 129.046 92.579 127.162 91.6773L127.255 85.1467C129.179 86.1324 131.23 86.9011 133.41 87.4528C135.59 88.0046 137.659 88.2943 139.617 88.322C143.429 88.376 146.158 87.7062 147.803 86.3127C149.448 84.8984 150.289 82.9309 150.324 80.4103C150.347 78.7855 149.939 77.4462 149.1 76.3926C148.281 75.3392 146.99 74.5396 145.227 73.9938C143.485 73.4482 141.228 73.1558 138.458 73.1166L134.427 73.0595L134.51 67.1539L138.572 67.2114C141.218 67.2488 143.347 66.9664 144.96 66.3642C146.573 65.7412 147.742 64.8722 148.466 63.7573C149.211 62.6428 149.594 61.3356 149.615 59.8357C149.643 57.8776 149.029 56.3479 147.774 55.2467C146.519 54.1246 144.641 53.5459 142.142 53.5105C140.6 53.4887 139.192 53.6459 137.916 53.982C136.661 54.3184 135.498 54.7499 134.428 55.2765C133.358 55.8031 132.34 56.372 131.373 56.9834L127.914 51.8402C129.661 50.5731 131.739 49.5087 134.147 48.6469C136.556 47.785 139.353 47.3767 142.54 47.4218C147.227 47.4882 150.827 48.5497 153.34 50.6063C155.853 52.6421 157.086 55.3473 157.038 58.7219Z" fill="black"/>
</svg>
