<svg width="201" height="201" viewBox="0 0 201 201" fill="none" xmlns="http://www.w3.org/2000/svg">
<path d="M200.917 0.702426C200.833 53.7457 179.682 104.583 142.115 142.031C104.549 179.479 53.645 200.47 0.601825 200.387L0.917385 0.38685L200.917 0.702426Z" fill="#BFE5F8"/>
<path d="M67.8125 77.125C67.8125 80.8125 67.5208 84.1146 66.9375 87.0312C66.375 89.9271 65.4792 92.3854 64.25 94.4062C63.0208 96.4271 61.4167 97.9688 59.4375 99.0312C57.4583 100.094 55.0625 100.625 52.25 100.625C48.7292 100.625 45.8229 99.6979 43.5312 97.8438C41.2396 95.9688 39.5417 93.2812 38.4375 89.7812C37.3333 86.2604 36.7812 82.0417 36.7812 77.125C36.7812 72.2083 37.2812 68 38.2812 64.5C39.3021 60.9792 40.9479 58.2812 43.2188 56.4062C45.4896 54.5312 48.5 53.5938 52.25 53.5938C55.7917 53.5938 58.7083 54.5312 61 56.4062C63.3125 58.2604 65.0208 60.9479 66.125 64.4688C67.25 67.9688 67.8125 72.1875 67.8125 77.125ZM44.1875 77.125C44.1875 80.9792 44.4375 84.1979 44.9375 86.7812C45.4583 89.3646 46.3125 91.3021 47.5 92.5938C48.6875 93.8646 50.2708 94.5 52.25 94.5C54.2292 94.5 55.8125 93.8646 57 92.5938C58.1875 91.3229 59.0417 89.3958 59.5625 86.8125C60.1042 84.2292 60.375 81 60.375 77.125C60.375 73.2917 60.1146 70.0833 59.5938 67.5C59.0729 64.9167 58.2188 62.9792 57.0312 61.6875C55.8438 60.375 54.25 59.7188 52.25 59.7188C50.25 59.7188 48.6562 60.375 47.4688 61.6875C46.3021 62.9792 45.4583 64.9167 44.9375 67.5C44.4375 70.0833 44.1875 73.2917 44.1875 77.125ZM106.094 89.9688H99.9062V100H92.6562V89.9688H71.875V84.4062L92.75 54.1875H99.9062V83.875H106.094V89.9688ZM92.6562 83.875V72.5312C92.6562 71.5938 92.6667 70.6458 92.6875 69.6875C92.7292 68.7083 92.7708 67.7708 92.8125 66.875C92.8542 65.9792 92.8958 65.1562 92.9375 64.4062C92.9792 63.6354 93.0104 63 93.0312 62.5H92.7812C92.3854 63.3333 91.9479 64.1875 91.4688 65.0625C90.9896 65.9167 90.4792 66.75 89.9375 67.5625L78.6875 83.875H92.6562Z" fill="black"/>
</svg>
