<svg width="761" height="820" viewBox="0 0 761 820" fill="none" xmlns="http://www.w3.org/2000/svg">
<path d="M720.168 410.949L-3.71367 14.6958L-6.11933 802.775L720.168 410.949Z" fill="#BFE5F8"/>
<path d="M185.874 413.376C184.903 413.376 184.151 413.11 183.618 412.577C183.117 412.013 182.866 411.245 182.866 410.274V382.544C182.866 381.541 183.117 380.789 183.618 380.288C184.151 379.755 184.903 379.489 185.874 379.489C186.845 379.489 187.582 379.755 188.083 380.288C188.616 380.789 188.882 381.541 188.882 382.544V394.529H188.976L202.465 380.993C202.966 380.492 203.468 380.116 203.969 379.865C204.47 379.614 205.034 379.489 205.661 379.489C206.57 379.489 207.212 379.724 207.588 380.194C207.995 380.664 208.152 381.212 208.058 381.839C207.995 382.466 207.698 383.045 207.165 383.578L193.441 397.161L193.488 394.435L207.823 409.005C208.481 409.632 208.826 410.29 208.857 410.979C208.888 411.668 208.669 412.248 208.199 412.718C207.76 413.157 207.102 413.376 206.225 413.376C205.473 413.376 204.862 413.219 204.392 412.906C203.953 412.593 203.436 412.138 202.841 411.543L188.976 397.678H188.882V410.274C188.882 411.245 188.631 412.013 188.13 412.577C187.629 413.11 186.877 413.376 185.874 413.376ZM224.289 413.47C221.689 413.47 219.448 412.984 217.568 412.013C215.688 411.042 214.231 409.663 213.197 407.877C212.195 406.091 211.693 403.976 211.693 401.532C211.693 399.151 212.179 397.067 213.15 395.281C214.153 393.495 215.516 392.101 217.239 391.098C218.994 390.064 220.984 389.547 223.208 389.547C224.838 389.547 226.295 389.813 227.579 390.346C228.895 390.879 230.008 391.646 230.916 392.649C231.856 393.652 232.561 394.874 233.031 396.315C233.533 397.725 233.783 399.323 233.783 401.109C233.783 401.673 233.58 402.112 233.172 402.425C232.796 402.707 232.248 402.848 231.527 402.848H216.44V399.464H229.647L228.895 400.169C228.895 398.728 228.676 397.521 228.237 396.55C227.83 395.579 227.219 394.842 226.404 394.341C225.621 393.808 224.634 393.542 223.443 393.542C222.127 393.542 220.999 393.855 220.059 394.482C219.151 395.077 218.446 395.939 217.944 397.067C217.474 398.164 217.239 399.48 217.239 401.015V401.344C217.239 403.913 217.835 405.84 219.025 407.125C220.247 408.378 222.033 409.005 224.383 409.005C225.198 409.005 226.107 408.911 227.109 408.723C228.143 408.504 229.115 408.143 230.023 407.642C230.681 407.266 231.261 407.109 231.762 407.172C232.264 407.203 232.655 407.376 232.937 407.689C233.251 408.002 233.439 408.394 233.501 408.864C233.564 409.303 233.47 409.757 233.219 410.227C233 410.697 232.608 411.104 232.044 411.449C230.948 412.138 229.679 412.655 228.237 413C226.827 413.313 225.511 413.47 224.289 413.47ZM243.897 421.836C243.207 421.836 242.643 421.648 242.205 421.272C241.766 420.927 241.5 420.457 241.406 419.862C241.343 419.267 241.453 418.64 241.735 417.982L244.931 410.885V413.329L236.377 393.542C236.095 392.853 236.001 392.21 236.095 391.615C236.189 391.02 236.471 390.55 236.941 390.205C237.442 389.829 238.116 389.641 238.962 389.641C239.682 389.641 240.262 389.813 240.701 390.158C241.139 390.471 241.531 391.082 241.876 391.991L248.221 407.83H246.811L253.297 391.944C253.641 391.067 254.049 390.471 254.519 390.158C254.989 389.813 255.615 389.641 256.399 389.641C257.088 389.641 257.636 389.829 258.044 390.205C258.451 390.55 258.702 391.02 258.796 391.615C258.89 392.179 258.78 392.806 258.467 393.495L247.046 419.58C246.638 420.457 246.2 421.053 245.73 421.366C245.26 421.679 244.649 421.836 243.897 421.836ZM142.468 469.47C141.089 469.47 139.71 469.36 138.332 469.141C136.953 468.953 135.653 468.655 134.431 468.248C133.209 467.809 132.112 467.277 131.141 466.65C130.577 466.274 130.185 465.82 129.966 465.287C129.746 464.754 129.668 464.237 129.731 463.736C129.825 463.203 130.028 462.749 130.342 462.373C130.686 461.966 131.109 461.715 131.611 461.621C132.112 461.527 132.66 461.668 133.256 462.044C134.634 462.859 136.091 463.454 137.627 463.83C139.162 464.206 140.776 464.394 142.468 464.394C144.943 464.394 146.745 463.987 147.873 463.172C149.001 462.326 149.565 461.245 149.565 459.929C149.565 458.832 149.157 457.971 148.343 457.344C147.559 456.717 146.196 456.2 144.254 455.793L139.084 454.712C136.107 454.085 133.882 453.036 132.41 451.563C130.968 450.059 130.248 448.085 130.248 445.641C130.248 444.106 130.561 442.711 131.188 441.458C131.814 440.205 132.692 439.124 133.82 438.215C134.979 437.306 136.342 436.617 137.909 436.147C139.507 435.646 141.261 435.395 143.173 435.395C145.053 435.395 146.839 435.63 148.531 436.1C150.223 436.57 151.742 437.259 153.09 438.168C153.591 438.513 153.92 438.936 154.077 439.437C154.265 439.938 154.312 440.44 154.218 440.941C154.124 441.411 153.904 441.818 153.56 442.163C153.215 442.508 152.776 442.711 152.244 442.774C151.742 442.837 151.163 442.68 150.505 442.304C149.345 441.646 148.17 441.176 146.98 440.894C145.789 440.612 144.504 440.471 143.126 440.471C141.684 440.471 140.447 440.675 139.413 441.082C138.379 441.489 137.58 442.069 137.016 442.821C136.483 443.542 136.217 444.403 136.217 445.406C136.217 446.534 136.593 447.443 137.345 448.132C138.097 448.79 139.381 449.307 141.199 449.683L146.322 450.764C149.424 451.422 151.727 452.456 153.231 453.866C154.766 455.276 155.534 457.156 155.534 459.506C155.534 461.01 155.22 462.373 154.594 463.595C153.998 464.817 153.121 465.867 151.962 466.744C150.834 467.621 149.471 468.295 147.873 468.765C146.275 469.235 144.473 469.47 142.468 469.47ZM170.614 469.47C168.233 469.47 166.165 468.984 164.41 468.013C162.655 467.042 161.292 465.663 160.321 463.877C159.35 462.06 158.864 459.929 158.864 457.485C158.864 455.636 159.13 453.991 159.663 452.55C160.227 451.077 161.026 449.824 162.06 448.79C163.094 447.725 164.332 446.926 165.773 446.393C167.214 445.829 168.828 445.547 170.614 445.547C172.995 445.547 175.063 446.033 176.818 447.004C178.573 447.975 179.936 449.354 180.907 451.14C181.878 452.926 182.364 455.041 182.364 457.485C182.364 459.334 182.082 460.994 181.518 462.467C180.985 463.94 180.202 465.209 179.168 466.274C178.134 467.308 176.896 468.107 175.455 468.671C174.014 469.204 172.4 469.47 170.614 469.47ZM170.614 465.005C171.773 465.005 172.792 464.723 173.669 464.159C174.546 463.595 175.22 462.765 175.69 461.668C176.191 460.54 176.442 459.146 176.442 457.485C176.442 454.978 175.909 453.114 174.844 451.892C173.779 450.639 172.369 450.012 170.614 450.012C169.455 450.012 168.436 450.294 167.559 450.858C166.682 451.391 165.992 452.221 165.491 453.349C165.021 454.446 164.786 455.824 164.786 457.485C164.786 459.96 165.319 461.84 166.384 463.125C167.449 464.378 168.859 465.005 170.614 465.005ZM195.062 469.47C192.462 469.47 190.503 468.734 189.187 467.261C187.871 465.757 187.213 463.564 187.213 460.681V438.45C187.213 437.479 187.464 436.742 187.965 436.241C188.467 435.74 189.187 435.489 190.127 435.489C191.067 435.489 191.788 435.74 192.289 436.241C192.822 436.742 193.088 437.479 193.088 438.45V460.399C193.088 461.84 193.386 462.906 193.981 463.595C194.608 464.284 195.485 464.629 196.613 464.629C196.864 464.629 197.099 464.629 197.318 464.629C197.538 464.598 197.757 464.566 197.976 464.535C198.415 464.472 198.713 464.598 198.869 464.911C199.026 465.193 199.104 465.788 199.104 466.697C199.104 467.48 198.948 468.091 198.634 468.53C198.321 468.969 197.804 469.235 197.083 469.329C196.77 469.36 196.441 469.392 196.096 469.423C195.752 469.454 195.407 469.47 195.062 469.47ZM210.541 469.47C208.63 469.47 207.047 469.125 205.794 468.436C204.541 467.715 203.601 466.65 202.974 465.24C202.379 463.83 202.081 462.075 202.081 459.976V448.602C202.081 447.599 202.332 446.863 202.833 446.393C203.334 445.892 204.055 445.641 204.995 445.641C205.935 445.641 206.656 445.892 207.157 446.393C207.69 446.863 207.956 447.599 207.956 448.602V460.07C207.956 461.699 208.285 462.906 208.943 463.689C209.601 464.472 210.651 464.864 212.092 464.864C213.659 464.864 214.943 464.331 215.946 463.266C216.949 462.169 217.45 460.728 217.45 458.942V448.602C217.45 447.599 217.701 446.863 218.202 446.393C218.703 445.892 219.424 445.641 220.364 445.641C221.304 445.641 222.025 445.892 222.526 446.393C223.059 446.863 223.325 447.599 223.325 448.602V466.368C223.325 468.373 222.369 469.376 220.458 469.376C219.549 469.376 218.844 469.125 218.343 468.624C217.842 468.091 217.591 467.339 217.591 466.368V462.796L218.249 464.206C217.591 465.898 216.588 467.198 215.241 468.107C213.925 469.016 212.358 469.47 210.541 469.47ZM239.968 469.47C237.931 469.47 236.223 469.125 234.845 468.436C233.497 467.747 232.495 466.744 231.837 465.428C231.179 464.081 230.85 462.42 230.85 460.446V450.435H228.406C227.654 450.435 227.074 450.247 226.667 449.871C226.259 449.464 226.056 448.915 226.056 448.226C226.056 447.505 226.259 446.957 226.667 446.581C227.074 446.205 227.654 446.017 228.406 446.017H230.85V441.74C230.85 440.769 231.1 440.032 231.602 439.531C232.134 439.03 232.871 438.779 233.811 438.779C234.751 438.779 235.471 439.03 235.973 439.531C236.474 440.032 236.725 440.769 236.725 441.74V446.017H241.707C242.459 446.017 243.038 446.205 243.446 446.581C243.853 446.957 244.057 447.505 244.057 448.226C244.057 448.915 243.853 449.464 243.446 449.871C243.038 450.247 242.459 450.435 241.707 450.435H236.725V460.117C236.725 461.621 237.054 462.749 237.712 463.501C238.37 464.253 239.435 464.629 240.908 464.629C241.44 464.629 241.91 464.582 242.318 464.488C242.725 464.394 243.085 464.331 243.399 464.3C243.775 464.269 244.088 464.394 244.339 464.676C244.589 464.927 244.715 465.459 244.715 466.274C244.715 466.901 244.605 467.465 244.386 467.966C244.198 468.436 243.837 468.765 243.305 468.953C242.897 469.078 242.365 469.188 241.707 469.282C241.049 469.407 240.469 469.47 239.968 469.47ZM250.989 469.329C250.049 469.329 249.328 469.047 248.827 468.483C248.325 467.919 248.075 467.136 248.075 466.133V448.884C248.075 447.85 248.325 447.067 248.827 446.534C249.328 445.97 250.049 445.688 250.989 445.688C251.929 445.688 252.649 445.97 253.151 446.534C253.683 447.067 253.95 447.85 253.95 448.884V466.133C253.95 467.136 253.699 467.919 253.198 468.483C252.696 469.047 251.96 469.329 250.989 469.329ZM250.989 441.317C249.892 441.317 249.03 441.051 248.404 440.518C247.808 439.954 247.511 439.186 247.511 438.215C247.511 437.212 247.808 436.445 248.404 435.912C249.03 435.379 249.892 435.113 250.989 435.113C252.117 435.113 252.978 435.379 253.574 435.912C254.169 436.445 254.467 437.212 254.467 438.215C254.467 439.186 254.169 439.954 253.574 440.518C252.978 441.051 252.117 441.317 250.989 441.317ZM270.535 469.47C268.154 469.47 266.086 468.984 264.331 468.013C262.576 467.042 261.213 465.663 260.242 463.877C259.271 462.06 258.785 459.929 258.785 457.485C258.785 455.636 259.051 453.991 259.584 452.55C260.148 451.077 260.947 449.824 261.981 448.79C263.015 447.725 264.253 446.926 265.694 446.393C267.135 445.829 268.749 445.547 270.535 445.547C272.916 445.547 274.984 446.033 276.739 447.004C278.494 447.975 279.857 449.354 280.828 451.14C281.799 452.926 282.285 455.041 282.285 457.485C282.285 459.334 282.003 460.994 281.439 462.467C280.906 463.94 280.123 465.209 279.089 466.274C278.055 467.308 276.817 468.107 275.376 468.671C273.935 469.204 272.321 469.47 270.535 469.47ZM270.535 465.005C271.694 465.005 272.713 464.723 273.59 464.159C274.467 463.595 275.141 462.765 275.611 461.668C276.112 460.54 276.363 459.146 276.363 457.485C276.363 454.978 275.83 453.114 274.765 451.892C273.7 450.639 272.29 450.012 270.535 450.012C269.376 450.012 268.357 450.294 267.48 450.858C266.603 451.391 265.913 452.221 265.412 453.349C264.942 454.446 264.707 455.824 264.707 457.485C264.707 459.96 265.24 461.84 266.305 463.125C267.37 464.378 268.78 465.005 270.535 465.005ZM290.048 469.376C289.108 469.376 288.387 469.125 287.886 468.624C287.385 468.091 287.134 467.339 287.134 466.368V448.602C287.134 447.631 287.385 446.894 287.886 446.393C288.387 445.892 289.092 445.641 290.001 445.641C290.91 445.641 291.615 445.892 292.116 446.393C292.617 446.894 292.868 447.631 292.868 448.602V451.798L292.351 450.623C293.04 448.962 294.106 447.709 295.547 446.863C297.02 445.986 298.68 445.547 300.529 445.547C302.378 445.547 303.897 445.892 305.088 446.581C306.279 447.27 307.172 448.32 307.767 449.73C308.362 451.109 308.66 452.863 308.66 454.994V466.368C308.66 467.339 308.409 468.091 307.908 468.624C307.407 469.125 306.686 469.376 305.746 469.376C304.806 469.376 304.07 469.125 303.537 468.624C303.036 468.091 302.785 467.339 302.785 466.368V455.276C302.785 453.49 302.44 452.19 301.751 451.375C301.093 450.56 300.059 450.153 298.649 450.153C296.926 450.153 295.547 450.701 294.513 451.798C293.51 452.863 293.009 454.289 293.009 456.075V466.368C293.009 468.373 292.022 469.376 290.048 469.376Z" fill="url(#paint0_linear_4_2)"/>
<path d="M98.0481 42.6962L154 10.3923L209.952 42.6962V107.304L154 139.608L98.0481 107.304V42.6962Z" fill="#FCFCFC" stroke="#29AAE1" stroke-width="18"/>
<path d="M332.048 193.696L388 161.392L443.952 193.696V258.304L388 290.608L332.048 258.304V193.696Z" fill="#FCFCFC" stroke="#29AAE1" stroke-width="18"/>
<path d="M332.048 561.696L388 529.392L443.952 561.696V626.304L388 658.608L332.048 626.304V561.696Z" fill="#FCFCFC" stroke="#29AAE1" stroke-width="18"/>
<path d="M100.048 712.696L156 680.392L211.952 712.696V777.304L156 809.608L100.048 777.304V712.696Z" fill="#FCFCFC" stroke="#29AAE1" stroke-width="18"/>
<path d="M630.048 374.696L686 342.392L741.952 374.696V439.304L686 471.608L630.048 439.304V374.696Z" fill="#FCFCFC" stroke="#29AAE1" stroke-width="18"/>
<path d="M144.068 91.1666V85.6907C143.497 79.9848 136.75 76.9296 136.75 68.1666C136.75 59.4075 141.977 52.726 152.432 52.8333C159.959 52.9138 167.068 57.2148 167.068 65.9778L171.25 72.5481C171.25 76.9296 167.068 76.9296 167.068 76.9296C167.068 76.9296 168.114 87.8815 158.704 87.8815V91.1666" stroke="black" stroke-width="1.5" stroke-linecap="round" stroke-linejoin="round"/>
<path d="M152.083 72.0002C153.1 72.0002 154.075 71.5963 154.794 70.8774C155.513 70.1585 155.917 69.1835 155.917 68.1668C155.917 67.1502 155.513 66.1751 154.794 65.4563C154.075 64.7374 153.1 64.3335 152.083 64.3335C151.067 64.3335 150.092 64.7374 149.373 65.4563C148.654 66.1751 148.25 67.1502 148.25 68.1668C148.25 69.1835 148.654 70.1585 149.373 70.8774C150.092 71.5963 151.067 72.0002 152.083 72.0002Z" stroke="black" stroke-width="1.5" stroke-linecap="round" stroke-linejoin="round"/>
<path d="M152.083 73.9165C153.608 73.9165 155.071 73.3107 156.149 72.2324C157.227 71.154 157.833 69.6915 157.833 68.1665C157.833 66.6415 157.227 65.179 156.149 64.1006C155.071 63.0223 153.608 62.4165 152.083 62.4165C150.558 62.4165 149.095 63.0223 148.017 64.1006C146.939 65.179 146.333 66.6415 146.333 68.1665C146.333 69.6915 146.939 71.154 148.017 72.2324C149.095 73.3107 150.558 73.9165 152.083 73.9165Z" stroke="black" stroke-width="1.5" stroke-linecap="round" stroke-linejoin="round" stroke-dasharray="0.3 2"/>
<path d="M376.062 208.75V240.375H401.938V208.75H376.062ZM374.625 205.875H403.375C403.756 205.875 404.122 206.026 404.391 206.296C404.661 206.566 404.812 206.931 404.812 207.312V241.812C404.812 242.194 404.661 242.559 404.391 242.829C404.122 243.099 403.756 243.25 403.375 243.25H374.625C374.244 243.25 373.878 243.099 373.609 242.829C373.339 242.559 373.188 242.194 373.188 241.812V207.312C373.188 206.931 373.339 206.566 373.609 206.296C373.878 206.026 374.244 205.875 374.625 205.875Z" fill="black"/>
<path d="M368.875 240.375H409.125V243.25H368.875V240.375ZM380.375 211.625H386.125V215.938H380.375V211.625Z" fill="black"/>
<path d="M383.25 240.375H394.75V237.5C394.75 235.975 394.144 234.512 393.066 233.434C391.988 232.356 390.525 231.75 389 231.75C387.475 231.75 386.012 232.356 384.934 233.434C383.856 234.512 383.25 235.975 383.25 237.5V240.375ZM389 228.875C391.287 228.875 393.481 229.784 395.099 231.401C396.716 233.019 397.625 235.213 397.625 237.5V243.25H380.375V237.5C380.375 235.213 381.284 233.019 382.901 231.401C384.519 229.784 386.713 228.875 389 228.875ZM380.375 220.25H386.125V224.562H380.375V220.25ZM391.875 211.625H397.625V215.938H391.875V211.625ZM391.875 220.25H397.625V224.562H391.875V220.25Z" fill="black"/>
<path d="M366.643 572.643V615.357H409.357" stroke="black" stroke-linecap="round" stroke-linejoin="round"/>
<path d="M376.5 592.357L384.714 600.572L397.857 580.857L409.357 589.072" stroke="black" stroke-linecap="round" stroke-linejoin="round"/>
<path d="M163.906 733.859C163.906 733.662 163.745 733.5 163.547 733.5H146.297C146.099 733.5 145.937 733.662 145.937 733.859V736.016C145.937 736.213 146.099 736.375 146.297 736.375H163.547C163.745 736.375 163.906 736.213 163.906 736.016V733.859ZM163.547 739.969H146.297C146.099 739.969 145.937 740.13 145.937 740.328V742.484C145.937 742.682 146.099 742.844 146.297 742.844H163.547C163.745 742.844 163.906 742.682 163.906 742.484V740.328C163.906 740.13 163.745 739.969 163.547 739.969ZM154.562 746.438H146.297C146.099 746.438 145.937 746.599 145.937 746.797V748.953C145.937 749.151 146.099 749.312 146.297 749.312H154.562C154.76 749.312 154.922 749.151 154.922 748.953V746.797C154.922 746.599 154.76 746.438 154.562 746.438ZM152.406 760.273H142.344V728.648H167.5V744.102C167.5 744.299 167.662 744.461 167.859 744.461H170.375C170.573 744.461 170.734 744.299 170.734 744.102V726.852C170.734 726.056 170.092 725.414 169.297 725.414H140.547C139.752 725.414 139.109 726.056 139.109 726.852V762.07C139.109 762.865 139.752 763.508 140.547 763.508H152.406C152.604 763.508 152.766 763.346 152.766 763.148V760.633C152.766 760.435 152.604 760.273 152.406 760.273ZM168.434 756.931C169.737 755.75 170.555 754.043 170.555 752.143C170.555 748.571 167.657 745.674 164.086 745.674C160.515 745.674 157.617 748.571 157.617 752.143C157.617 754.043 158.435 755.75 159.737 756.931C157.177 758.391 155.416 761.096 155.281 764.213C155.272 764.415 155.438 764.586 155.641 764.586H157.801C157.99 764.586 158.147 764.438 158.161 764.245C158.336 761.136 160.928 758.656 164.086 758.656C167.244 758.656 169.836 761.136 170.011 764.245C170.02 764.433 170.177 764.586 170.371 764.586H172.531C172.738 764.586 172.9 764.415 172.891 764.213C172.76 761.091 170.995 758.391 168.434 756.931ZM164.086 748.549C166.071 748.549 167.68 750.157 167.68 752.143C167.68 754.128 166.071 755.736 164.086 755.736C162.1 755.736 160.492 754.128 160.492 752.143C160.492 750.157 162.1 748.549 164.086 748.549Z" fill="black"/>
<g clip-path="url(#clip0_4_2)">
<path d="M686 384C688.111 384 690.148 384.27 692.109 384.809C694.071 385.348 695.905 386.119 697.612 387.122C699.319 388.125 700.869 389.323 702.262 390.716C703.654 392.108 704.852 393.666 705.855 395.388C706.859 397.11 707.63 398.944 708.169 400.891C708.708 402.837 708.985 404.874 709 407C709 409.111 708.73 411.148 708.191 413.109C707.652 415.071 706.881 416.905 705.878 418.612C704.875 420.319 703.677 421.869 702.284 423.262C700.892 424.654 699.334 425.852 697.612 426.855C695.89 427.859 694.056 428.63 692.109 429.169C690.163 429.708 688.126 429.985 686 430C683.889 430 681.852 429.73 679.891 429.191C677.929 428.652 676.095 427.881 674.388 426.878C672.681 425.875 671.131 424.677 669.738 423.284C668.346 421.892 667.148 420.334 666.145 418.612C665.141 416.89 664.37 415.063 663.831 413.132C663.292 411.2 663.015 409.156 663 407C663 404.889 663.27 402.852 663.809 400.891C664.348 398.929 665.119 397.095 666.122 395.388C667.125 393.681 668.323 392.131 669.716 390.738C671.108 389.346 672.666 388.148 674.388 387.145C676.11 386.141 677.937 385.37 679.868 384.831C681.8 384.292 683.844 384.015 686 384ZM686 427.125C687.842 427.125 689.616 426.885 691.323 426.406C693.03 425.927 694.632 425.253 696.13 424.385C697.627 423.516 698.99 422.461 700.218 421.218C701.446 419.975 702.494 418.62 703.362 417.152C704.231 415.685 704.912 414.083 705.406 412.346C705.9 410.609 706.14 408.827 706.125 407C706.125 405.158 705.885 403.384 705.406 401.677C704.927 399.97 704.253 398.368 703.385 396.87C702.516 395.373 701.461 394.01 700.218 392.782C698.975 391.554 697.62 390.506 696.152 389.638C694.685 388.769 693.083 388.088 691.346 387.594C689.609 387.1 687.827 386.86 686 386.875C684.158 386.875 682.384 387.115 680.677 387.594C678.97 388.073 677.368 388.747 675.87 389.615C674.373 390.484 673.01 391.539 671.782 392.782C670.554 394.025 669.506 395.38 668.638 396.848C667.769 398.315 667.088 399.917 666.594 401.654C666.1 403.391 665.86 405.173 665.875 407C665.875 408.842 666.115 410.616 666.594 412.323C667.073 414.03 667.747 415.632 668.615 417.13C669.484 418.627 670.539 419.99 671.782 421.218C673.025 422.446 674.38 423.494 675.848 424.362C677.315 425.231 678.917 425.912 680.654 426.406C682.391 426.9 684.173 427.14 686 427.125ZM699.409 407.359L700.487 404.125H702.172L700.263 409.875H698.578L697.5 406.641L696.422 409.875H694.737L692.828 404.125H694.513L695.591 407.359L696.669 404.125H698.331L699.409 407.359ZM688.987 404.125H690.672L688.763 409.875H687.078L686 406.641L684.922 409.875H683.237L681.328 404.125H683.013L684.091 407.359L685.169 404.125H686.831L687.909 407.359L688.987 404.125ZM677.487 404.125H679.172L677.263 409.875H675.578L674.5 406.641L673.422 409.875H671.737L669.828 404.125H671.513L672.591 407.359L673.669 404.125H675.331L676.409 407.359L677.487 404.125Z" fill="black"/>
</g>
<defs>
<linearGradient id="paint0_linear_4_2" x1="220" y1="605.721" x2="220" y2="174.651" gradientUnits="userSpaceOnUse">
<stop stop-color="#86D1F3"/>
<stop offset="0.658857" stop-color="#165D7B"/>
</linearGradient>
<clipPath id="clip0_4_2">
<rect width="46" height="46" fill="white" transform="translate(663 384)"/>
</clipPath>
</defs>
</svg>
