<svg width="100" height="100" viewBox="0 0 100 100" fill="none" xmlns="http://www.w3.org/2000/svg">
<path d="M67.1875 25.7812C67.1875 25.3516 66.8359 25 66.4063 25H28.9063C28.4766 25 28.125 25.3516 28.125 25.7812V30.4688C28.125 30.8984 28.4766 31.25 28.9063 31.25H66.4063C66.8359 31.25 67.1875 30.8984 67.1875 30.4688V25.7812ZM66.4063 39.0625H28.9063C28.4766 39.0625 28.125 39.4141 28.125 39.8438V44.5312C28.125 44.9609 28.4766 45.3125 28.9063 45.3125H66.4063C66.8359 45.3125 67.1875 44.9609 67.1875 44.5312V39.8438C67.1875 39.4141 66.8359 39.0625 66.4063 39.0625ZM46.875 53.125H28.9063C28.4766 53.125 28.125 53.4766 28.125 53.9062V58.5938C28.125 59.0234 28.4766 59.375 28.9063 59.375H46.875C47.3047 59.375 47.6563 59.0234 47.6563 58.5938V53.9062C47.6563 53.4766 47.3047 53.125 46.875 53.125ZM42.1875 83.2031H20.3125V14.4531H75V48.0469C75 48.4766 75.3516 48.8281 75.7813 48.8281H81.25C81.6797 48.8281 82.0313 48.4766 82.0313 48.0469V10.5469C82.0313 8.81836 80.6348 7.42188 78.9063 7.42188H16.4063C14.6777 7.42188 13.2812 8.81836 13.2812 10.5469V87.1094C13.2812 88.8379 14.6777 90.2344 16.4063 90.2344H42.1875C42.6172 90.2344 42.9688 89.8828 42.9688 89.4531V83.9844C42.9688 83.5547 42.6172 83.2031 42.1875 83.2031ZM77.0313 75.9375C79.8633 73.3691 81.6406 69.6582 81.6406 65.5273C81.6406 57.7637 75.3418 51.4648 67.5781 51.4648C59.8145 51.4648 53.5156 57.7637 53.5156 65.5273C53.5156 69.6582 55.293 73.3691 58.125 75.9375C52.5586 79.1113 48.7305 84.9902 48.4375 91.7676C48.418 92.207 48.7793 92.5781 49.2188 92.5781H53.916C54.3262 92.5781 54.668 92.2559 54.6973 91.8359C55.0781 85.0781 60.7129 79.6875 67.5781 79.6875C74.4434 79.6875 80.0781 85.0781 80.459 91.8359C80.4785 92.2461 80.8203 92.5781 81.2402 92.5781H85.9375C86.3867 92.5781 86.7383 92.207 86.7188 91.7676C86.4356 84.9805 82.5977 79.1113 77.0313 75.9375ZM67.5781 57.7148C71.8945 57.7148 75.3906 61.2109 75.3906 65.5273C75.3906 69.8438 71.8945 73.3398 67.5781 73.3398C63.2617 73.3398 59.7656 69.8438 59.7656 65.5273C59.7656 61.2109 63.2617 57.7148 67.5781 57.7148Z" fill="black"/>
</svg>
