<svg width="100" height="100" viewBox="0 0 100 100" fill="none" xmlns="http://www.w3.org/2000/svg">
<path d="M39.0712 10.4165H60.9295C65.5128 10.4165 69.0878 10.4165 71.9503 10.6498C74.8587 10.8873 77.2212 11.379 79.3462 12.4582C82.8751 14.256 85.7442 17.125 87.542 20.654C88.6253 22.779 89.1128 25.1415 89.3503 28.0498C89.5837 30.9123 89.5837 34.4832 89.5837 39.0707V44.9998C89.5837 45.5524 89.3642 46.0823 88.9735 46.473C88.5828 46.8637 88.0529 47.0832 87.5003 47.0832C86.9478 47.0832 86.4179 46.8637 86.0272 46.473C85.6365 46.0823 85.417 45.5524 85.417 44.9998V39.1665C85.417 34.4665 85.417 31.0623 85.1962 28.3915C84.9795 25.7373 84.5628 23.9873 83.8295 22.5457C82.4312 19.8007 80.1995 17.569 77.4545 16.1707C76.0128 15.4373 74.2628 15.0207 71.6128 14.804C68.9378 14.5832 65.5337 14.5832 60.8337 14.5832H39.167C34.467 14.5832 31.0628 14.5832 28.392 14.804C25.7378 15.0207 23.9878 15.4373 22.5462 16.1707C19.8012 17.569 17.5695 19.8007 16.1712 22.5457C15.4378 23.9873 15.0212 25.7373 14.8045 28.3915C14.5837 31.0623 14.5837 34.4665 14.5837 39.1665V60.8332C14.5837 65.5332 14.5837 68.9373 14.8045 71.6082C15.0212 74.2623 15.4378 76.0123 16.1712 77.454C17.5695 80.199 19.8012 82.4307 22.5462 83.829C23.9878 84.5623 25.7378 84.979 28.392 85.1957C31.0628 85.4165 34.467 85.4165 39.167 85.4165H50.0003C50.5529 85.4165 51.0828 85.636 51.4735 86.0267C51.8642 86.4174 52.0837 86.9473 52.0837 87.4998C52.0837 88.0524 51.8642 88.5823 51.4735 88.973C51.0828 89.3637 50.5529 89.5832 50.0003 89.5832H39.0712C34.4878 89.5832 30.9128 89.5832 28.0503 89.3498C25.142 89.1123 22.7795 88.6207 20.6545 87.5415C17.1255 85.7437 14.2564 82.8746 12.4587 79.3457C11.3753 77.2207 10.8878 74.8582 10.6503 71.9498C10.417 69.0873 10.417 65.5165 10.417 60.929V39.0707C10.417 34.4873 10.417 30.9123 10.6503 28.0498C10.8878 25.1415 11.3795 22.779 12.4587 20.654C14.2564 17.125 17.1255 14.256 20.6545 12.4582C22.7795 11.3748 25.142 10.8873 28.0503 10.6498C30.917 10.4165 34.4837 10.4165 39.0712 10.4165Z" fill="black"/>
<path d="M65.7753 61.5752C65.7753 56.4085 69.8337 52.0835 75.0003 52.0835C80.167 52.0835 84.2253 56.4043 84.2253 61.5752V65.3877C84.6781 65.5016 85.1198 65.6696 85.5503 65.8918C86.9545 66.6377 88.0837 67.8127 88.7878 69.246C89.2462 70.1752 89.4212 71.1585 89.5045 72.2043C89.5837 73.2127 89.5837 74.4543 89.5837 75.9377V78.6918C89.5837 80.1793 89.5837 81.4168 89.5003 82.4252C89.4564 83.4481 89.2144 84.4527 88.7878 85.3835C88.0924 86.8171 86.9584 87.9919 85.5503 88.7377C84.6359 89.1883 83.6392 89.4477 82.6212 89.5002C81.642 89.5835 80.442 89.5835 79.017 89.5835H70.9837C69.5587 89.5835 68.3587 89.5835 67.3753 89.5002C66.3587 89.4471 65.3635 89.1877 64.4503 88.7377C63.0423 87.9919 61.9083 86.8171 61.2128 85.3835C60.7848 84.453 60.5414 83.4483 60.4962 82.4252C60.417 81.4168 60.417 80.1793 60.417 78.6918V75.9377C60.417 74.4502 60.417 73.2127 60.5003 72.2043C60.5795 71.1585 60.7587 70.1752 61.2128 69.246C61.9083 67.8124 63.0423 66.6376 64.4503 65.8918C64.8809 65.6696 65.3225 65.5016 65.7753 65.3877V61.5752ZM69.942 65.046H80.0587V61.5752C80.0587 58.5627 77.7253 56.2502 75.0003 56.2502C72.2753 56.2502 69.942 58.5627 69.942 61.5752V65.046ZM67.7295 69.2835C66.9712 69.346 66.6212 69.4585 66.3962 69.5752C65.7666 69.9107 65.2613 70.4394 64.9545 71.0835C64.8295 71.3418 64.7128 71.7293 64.6503 72.5335C64.5837 73.3585 64.5837 74.4293 64.5837 76.0168V78.6127C64.5837 80.2002 64.5837 81.271 64.6503 82.096C64.7128 82.9002 64.8253 83.2918 64.9545 83.5502C65.2638 84.1918 65.7705 84.7175 66.4003 85.0502C66.6212 85.171 66.9712 85.2835 67.7295 85.3502C68.5128 85.4168 69.5378 85.4168 71.0712 85.4168H78.9295C80.4628 85.4168 81.4878 85.4168 82.2712 85.3502C83.0295 85.2835 83.3795 85.171 83.6045 85.0543C84.2334 84.7199 84.7387 84.1927 85.0462 83.5502C85.1712 83.2918 85.2878 82.9002 85.3503 82.096C85.417 81.271 85.417 80.2002 85.417 78.6127V76.0168C85.417 74.4335 85.417 73.3585 85.3503 72.5335C85.2878 71.7293 85.1753 71.3418 85.0462 71.0835C84.7376 70.4403 84.2308 69.9131 83.6003 69.5793C83.3795 69.4585 83.0295 69.346 82.2712 69.2793C81.1585 69.2165 80.0438 69.1943 78.9295 69.2127H71.0712C69.5378 69.2127 68.5128 69.2127 67.7295 69.2835Z" fill="black"/>
<path d="M75.0003 74.9998C75.5529 74.9998 76.0828 75.2193 76.4735 75.61C76.8642 76.0007 77.0837 76.5306 77.0837 77.0832V79.1665C77.0837 79.719 76.8642 80.2489 76.4735 80.6396C76.0828 81.0303 75.5529 81.2498 75.0003 81.2498C74.4478 81.2498 73.9179 81.0303 73.5272 80.6396C73.1365 80.2489 72.917 79.719 72.917 79.1665V77.0832C72.917 76.5306 73.1365 76.0007 73.5272 75.61C73.9179 75.2193 74.4478 74.9998 75.0003 74.9998ZM22.917 24.9998C22.917 25.5524 23.1365 26.0823 23.5272 26.473C23.9179 26.8637 24.4478 27.0832 25.0003 27.0832H75.0003C75.5529 27.0832 76.0828 26.8637 76.4735 26.473C76.8642 26.0823 77.0837 25.5524 77.0837 24.9998C77.0837 24.4473 76.8642 23.9174 76.4735 23.5267C76.0828 23.136 75.5529 22.9165 75.0003 22.9165H25.0003C24.4478 22.9165 23.9179 23.136 23.5272 23.5267C23.1365 23.9174 22.917 24.4473 22.917 24.9998ZM22.917 37.4998C22.917 36.9473 23.1365 36.4174 23.5272 36.0267C23.9179 35.636 24.4478 35.4165 25.0003 35.4165H60.417C60.9695 35.4165 61.4994 35.636 61.8901 36.0267C62.2808 36.4174 62.5003 36.9473 62.5003 37.4998C62.5003 38.0524 62.2808 38.5823 61.8901 38.973C61.4994 39.3637 60.9695 39.5832 60.417 39.5832H25.0003C24.4478 39.5832 23.9179 39.3637 23.5272 38.973C23.1365 38.5823 22.917 38.0524 22.917 37.4998ZM22.917 49.9998C22.917 49.4473 23.1365 48.9174 23.5272 48.5267C23.9179 48.136 24.4478 47.9165 25.0003 47.9165H29.167C29.7195 47.9165 30.2494 48.136 30.6401 48.5267C31.0308 48.9174 31.2503 49.4473 31.2503 49.9998C31.2503 50.5524 31.0308 51.0823 30.6401 51.473C30.2494 51.8637 29.7195 52.0832 29.167 52.0832H25.0003C24.4478 52.0832 23.9179 51.8637 23.5272 51.473C23.1365 51.0823 22.917 50.5524 22.917 49.9998ZM22.917 62.4998C22.917 61.9473 23.1365 61.4174 23.5272 61.0267C23.9179 60.636 24.4478 60.4165 25.0003 60.4165H29.167C29.7195 60.4165 30.2494 60.636 30.6401 61.0267C31.0308 61.4174 31.2503 61.9473 31.2503 62.4998C31.2503 63.0524 31.0308 63.5823 30.6401 63.973C30.2494 64.3637 29.7195 64.5832 29.167 64.5832H25.0003C24.4478 64.5832 23.9179 64.3637 23.5272 63.973C23.1365 63.5823 22.917 63.0524 22.917 62.4998ZM35.417 49.9998C35.417 49.4473 35.6365 48.9174 36.0272 48.5267C36.4179 48.136 36.9478 47.9165 37.5003 47.9165H60.417C60.9695 47.9165 61.4994 48.136 61.8901 48.5267C62.2808 48.9174 62.5003 49.4473 62.5003 49.9998C62.5003 50.5524 62.2808 51.0823 61.8901 51.473C61.4994 51.8637 60.9695 52.0832 60.417 52.0832H37.5003C36.9478 52.0832 36.4179 51.8637 36.0272 51.473C35.6365 51.0823 35.417 50.5524 35.417 49.9998ZM35.417 62.4998C35.417 63.0524 35.6365 63.5823 36.0272 63.973C36.4179 64.3637 36.9478 64.5832 37.5003 64.5832H52.0837C52.6362 64.5832 53.1661 64.3637 53.5568 63.973C53.9475 63.5823 54.167 63.0524 54.167 62.4998C54.167 61.9473 53.9475 61.4174 53.5568 61.0267C53.1661 60.636 52.6362 60.4165 52.0837 60.4165H37.5003C36.9478 60.4165 36.4179 60.636 36.0272 61.0267C35.6365 61.4174 35.417 61.9473 35.417 62.4998ZM22.917 74.9998C22.917 74.4473 23.1365 73.9174 23.5272 73.5267C23.9179 73.136 24.4478 72.9165 25.0003 72.9165H50.0003C50.5529 72.9165 51.0828 73.136 51.4735 73.5267C51.8642 73.9174 52.0837 74.4473 52.0837 74.9998C52.0837 75.5524 51.8642 76.0823 51.4735 76.473C51.0828 76.8637 50.5529 77.0832 50.0003 77.0832H25.0003C24.4478 77.0832 23.9179 76.8637 23.5272 76.473C23.1365 76.0823 22.917 75.5524 22.917 74.9998Z" fill="black"/>
</svg>
