<svg width="100" height="100" viewBox="0 0 100 100" fill="none" xmlns="http://www.w3.org/2000/svg">
<path d="M45.8337 74.9998H54.167V87.4998H45.8337V74.9998ZM66.667 87.4998V95.8332H33.3337V87.4998H66.667ZM83.3337 74.9998H16.667C13.3528 74.9965 10.1753 73.6785 7.83181 71.335C5.48832 68.9915 4.1703 65.814 4.16699 62.4998V16.6665C4.1703 13.3523 5.48832 10.1748 7.83181 7.83132C10.1753 5.48784 13.3528 4.16981 16.667 4.1665H83.3337C86.6479 4.16981 89.8253 5.48784 92.1688 7.83132C94.5123 10.1748 95.8303 13.3523 95.8337 16.6665V62.4998C95.8303 65.814 94.5123 68.9915 92.1688 71.335C89.8253 73.6785 86.6479 74.9965 83.3337 74.9998ZM16.667 12.4998C15.5619 12.4998 14.5021 12.9388 13.7207 13.7202C12.9393 14.5016 12.5003 15.5614 12.5003 16.6665V62.4998C12.5003 63.6049 12.9393 64.6647 13.7207 65.4461C14.5021 66.2275 15.5619 66.6665 16.667 66.6665H83.3337C84.4387 66.6665 85.4985 66.2275 86.2799 65.4461C87.0613 64.6647 87.5003 63.6049 87.5003 62.4998V16.6665C87.5003 15.5614 87.0613 14.5016 86.2799 13.7202C85.4985 12.9388 84.4387 12.4998 83.3337 12.4998H16.667Z" fill="black"/>
<path d="M66.6663 62.4998L58.6913 35.9165L54.1663 54.1665L48.7122 41.6665H47.333L41.6663 58.3332L36.8455 41.3873L34.6205 45.8332H20.833V41.6665H32.0455L37.4997 29.1665L41.9497 44.6373L44.333 37.4998H51.2872L53.3163 41.554L58.333 16.6665L66.6663 49.9998L69.333 41.6665H79.1663V45.8332H72.333L66.6663 62.4998Z" fill="black"/>
</svg>
