<svg width="100" height="100" viewBox="0 0 100 100" fill="none" xmlns="http://www.w3.org/2000/svg">
<path d="M81.25 87.5H18.75C17.0932 87.4975 15.5049 86.8382 14.3333 85.6667C13.1618 84.4951 12.5025 82.9068 12.5 81.25V18.75C12.5025 17.0932 13.1618 15.5049 14.3333 14.3333C15.5049 13.1618 17.0932 12.5025 18.75 12.5H50V18.75H18.75V81.25H81.25V50H87.5V81.25C87.4975 82.9068 86.8382 84.4951 85.6667 85.6667C84.4951 86.8382 82.9068 87.4975 81.25 87.5Z" fill="black"/>
<path d="M62.5 6.25V12.5H83.0813L56.25 39.3313L60.6687 43.75L87.5 16.9187V37.5H93.75V6.25H62.5Z" fill="black"/>
</svg>
