<svg width="100" height="100" viewBox="0 0 100 100" fill="none" xmlns="http://www.w3.org/2000/svg">
<path d="M87.5 50V68.75H12.5V18.75H34.375V12.5H12.5C10.8424 12.5 9.25268 13.1585 8.08058 14.3306C6.90848 15.5027 6.25 17.0924 6.25 18.75V68.75C6.25 70.4076 6.90848 71.9973 8.08058 73.1694C9.25268 74.3415 10.8424 75 12.5 75H37.5V87.5H25V93.75H75V87.5H62.5V75H87.5C89.1576 75 90.7473 74.3415 91.9194 73.1694C93.0915 71.9973 93.75 70.4076 93.75 68.75V50H87.5ZM56.25 87.5H43.75V75H56.25V87.5Z" fill="black"/>
<path d="M56.25 56.2499H56.2188C55.5454 56.2428 54.8924 56.0185 54.3568 55.6102C53.8213 55.202 53.432 54.6317 53.2469 53.9842L47.6438 34.3749H34.375V28.1249H50C50.6792 28.1245 51.3401 28.3454 51.8825 28.7542C52.425 29.163 52.8195 29.7374 53.0063 30.3905L56.3625 42.1405L65.7656 11.578C65.9668 10.9427 66.3639 10.3875 66.9 9.99173C67.4361 9.59597 68.0837 9.38004 68.75 9.37486C69.4084 9.36496 70.0525 9.56755 70.5867 9.95258C71.1209 10.3376 71.5168 10.8846 71.7156 11.5124L77.25 28.1249H93.75V34.3749H75C74.3439 34.375 73.7043 34.1686 73.172 33.785C72.6397 33.4013 72.2417 32.8599 72.0344 32.2374L68.8688 22.7374L59.2375 54.0436C59.041 54.6825 58.6448 55.2416 58.107 55.6387C57.5693 56.0358 56.9185 56.25 56.25 56.2499Z" fill="black"/>
</svg>
