<svg width="200" height="200" viewBox="0 0 200 200" fill="none" xmlns="http://www.w3.org/2000/svg">
<path d="M0 200C4.63719e-06 146.957 21.0714 96.0859 58.5787 58.5786C96.0859 21.0714 146.957 -6.32535e-07 200 0V200L0 200Z" fill="#BFE5F8"/>
<path d="M111.812 137.125C111.812 140.812 111.521 144.115 110.938 147.031C110.375 149.927 109.479 152.385 108.25 154.406C107.021 156.427 105.417 157.969 103.438 159.031C101.458 160.094 99.0625 160.625 96.25 160.625C92.7292 160.625 89.8229 159.698 87.5312 157.844C85.2396 155.969 83.5417 153.281 82.4375 149.781C81.3333 146.26 80.7812 142.042 80.7812 137.125C80.7812 132.208 81.2812 128 82.2812 124.5C83.3021 120.979 84.9479 118.281 87.2188 116.406C89.4896 114.531 92.5 113.594 96.25 113.594C99.7917 113.594 102.708 114.531 105 116.406C107.312 118.26 109.021 120.948 110.125 124.469C111.25 127.969 111.812 132.188 111.812 137.125ZM88.1875 137.125C88.1875 140.979 88.4375 144.198 88.9375 146.781C89.4583 149.365 90.3125 151.302 91.5 152.594C92.6875 153.865 94.2708 154.5 96.25 154.5C98.2292 154.5 99.8125 153.865 101 152.594C102.188 151.323 103.042 149.396 103.562 146.812C104.104 144.229 104.375 141 104.375 137.125C104.375 133.292 104.115 130.083 103.594 127.5C103.073 124.917 102.219 122.979 101.031 121.688C99.8438 120.375 98.25 119.719 96.25 119.719C94.25 119.719 92.6562 120.375 91.4688 121.688C90.3021 122.979 89.4583 124.917 88.9375 127.5C88.4375 130.083 88.1875 133.292 88.1875 137.125ZM139.094 160H131.719V130.594C131.719 129.615 131.729 128.635 131.75 127.656C131.771 126.677 131.792 125.719 131.812 124.781C131.854 123.844 131.906 122.948 131.969 122.094C131.531 122.573 130.99 123.094 130.344 123.656C129.719 124.219 129.052 124.802 128.344 125.406L123.094 129.594L119.406 124.938L132.969 114.312H139.094V160Z" fill="#201506"/>
</svg>
