<svg width="100" height="100" viewBox="0 0 100 100" fill="none" xmlns="http://www.w3.org/2000/svg">
<path d="M43.75 12.5C43.1975 12.5 42.6676 12.7195 42.2769 13.1102C41.8862 13.5009 41.6667 14.0308 41.6667 14.5833C41.6667 15.1359 41.8862 15.6658 42.2769 16.0565C42.6676 16.4472 43.1975 16.6667 43.75 16.6667H45.8333V23.0021C40.6524 23.4286 35.735 25.4663 31.7708 28.8292L31.7125 28.7667L27.2937 24.3458L28.7667 22.8729C29.1573 22.482 29.3767 21.9519 29.3765 21.3993C29.3763 20.8466 29.1565 20.3167 28.7656 19.926C28.3747 19.5354 27.8446 19.316 27.292 19.3162C26.7393 19.3164 26.2094 19.5362 25.8187 19.9271L19.9271 25.8187C19.7335 26.0122 19.5799 26.2418 19.4751 26.4946C19.3703 26.7474 19.3163 27.0183 19.3162 27.292C19.3161 27.5656 19.37 27.8366 19.4746 28.0894C19.5792 28.3423 19.7326 28.5721 19.926 28.7656C20.1195 28.9592 20.3491 29.1128 20.6019 29.2176C20.8547 29.3224 21.1256 29.3764 21.3993 29.3765C21.6729 29.3766 21.9439 29.3228 22.1967 29.2181C22.4496 29.1135 22.6794 28.9601 22.8729 28.7667L24.3458 27.2937L28.7667 31.7104L28.8292 31.7729C25.4659 35.7363 23.4276 40.6529 23 45.8333H16.6667V43.75C16.6667 43.1975 16.4472 42.6676 16.0565 42.2769C15.6658 41.8862 15.1359 41.6667 14.5833 41.6667C14.0308 41.6667 13.5009 41.8862 13.1102 42.2769C12.7195 42.6676 12.5 43.1975 12.5 43.75V52.0833C12.5 52.6359 12.7195 53.1658 13.1102 53.5565C13.5009 53.9472 14.0308 54.1667 14.5833 54.1667C15.1359 54.1667 15.6658 53.9472 16.0565 53.5565C16.4472 53.1658 16.6667 52.6359 16.6667 52.0833V50H23.0021C23.4286 55.1809 25.4663 60.0983 28.8292 64.0625L28.7667 64.1208L24.3458 68.5417L22.8729 67.0687C22.48 66.6893 21.9537 66.4793 21.4075 66.484C20.8613 66.4888 20.3387 66.7079 19.9525 67.0941C19.5662 67.4804 19.3471 68.0029 19.3423 68.5492C19.3376 69.0954 19.5476 69.6217 19.9271 70.0146L25.8187 75.9062C26.0122 76.0998 26.2418 76.2534 26.4946 76.3582C26.7474 76.463 27.0183 76.517 27.292 76.5171C27.5656 76.5172 27.8366 76.4634 28.0894 76.3588C28.3423 76.2541 28.5721 76.1007 28.7656 75.9073C28.9592 75.7139 29.1128 75.4842 29.2176 75.2314C29.3224 74.9787 29.3764 74.7077 29.3765 74.4341C29.3766 74.1604 29.3228 73.8894 29.2181 73.6366C29.1135 73.3837 28.9601 73.154 28.7667 72.9604L27.2937 71.4875L31.7104 67.0687L31.7729 67.0062C35.0928 69.8213 39.0922 71.7176 43.3729 72.5063C43.6421 72.5558 43.9185 72.5518 44.1861 72.4945C44.4538 72.4372 44.7076 72.3278 44.9329 72.1725C45.1583 72.0171 45.3509 71.8189 45.4996 71.5891C45.6484 71.3594 45.7505 71.1025 45.8 70.8333C45.8495 70.5641 45.8455 70.2878 45.7883 70.0201C45.731 69.7525 45.6216 69.4987 45.4662 69.2733C45.3109 69.0479 45.1126 68.8554 44.8829 68.7066C44.6531 68.5578 44.3963 68.4558 44.1271 68.4062C34.4292 66.625 27.0833 58.1271 27.0833 47.9167C27.0833 36.4104 36.4104 27.0833 47.9167 27.0833C58.125 27.0833 66.625 34.4292 68.4062 44.125C68.4511 44.3981 68.55 44.6595 68.697 44.894C68.8441 45.1284 69.0364 45.3313 69.2627 45.4906C69.489 45.6499 69.7447 45.7626 70.0151 45.8219C70.2854 45.8813 70.5648 45.8862 70.8371 45.8364C71.1093 45.7866 71.3689 45.683 71.6007 45.5317C71.8324 45.3805 72.0317 45.1845 72.1869 44.9554C72.3421 44.7262 72.4501 44.4685 72.5046 44.1971C72.5591 43.9258 72.5589 43.6463 72.5042 43.375C71.7162 39.0928 69.8199 35.0919 67.0042 31.7708L67.0167 31.7604L67.0667 31.7125L71.4875 27.2937L72.9604 28.7667C73.3513 29.1573 73.8814 29.3767 74.4341 29.3765C74.9867 29.3763 75.5167 29.1565 75.9073 28.7656C76.2979 28.3747 76.5173 27.8446 76.5171 27.292C76.5169 26.7393 76.2972 26.2094 75.9062 25.8187L70.0146 19.9271C69.8212 19.7335 69.5915 19.5799 69.3387 19.4751C69.0859 19.3703 68.815 19.3163 68.5414 19.3162C68.2677 19.3161 67.9967 19.37 67.7439 19.4746C67.491 19.5792 67.2613 19.7326 67.0677 19.926C66.8741 20.1195 66.7206 20.3491 66.6158 20.6019C66.511 20.8547 66.457 21.1256 66.4569 21.3993C66.4568 21.6729 66.5106 21.9439 66.6152 22.1967C66.7198 22.4496 66.8732 22.6794 67.0667 22.8729L68.5417 24.3458L64.1208 28.7667L64.0625 28.8292C60.0986 25.4655 55.1811 23.4271 50 23V16.6667H52.0833C52.6359 16.6667 53.1658 16.4472 53.5565 16.0565C53.9472 15.6658 54.1667 15.1359 54.1667 14.5833C54.1667 14.0308 53.9472 13.5009 53.5565 13.1102C53.1658 12.7195 52.6359 12.5 52.0833 12.5H43.75Z" fill="black"/>
<path fill-rule="evenodd" clip-rule="evenodd" d="M33.333 42.7082C33.333 40.7743 34.1012 38.9196 35.4687 37.5522C36.8361 36.1847 38.6908 35.4165 40.6247 35.4165C42.5585 35.4165 44.4132 36.1847 45.7807 37.5522C47.1481 38.9196 47.9163 40.7743 47.9163 42.7082C47.9163 44.642 47.1481 46.4967 45.7807 47.8642C44.4132 49.2316 42.5585 49.9998 40.6247 49.9998C38.6908 49.9998 36.8361 49.2316 35.4687 47.8642C34.1012 46.4967 33.333 44.642 33.333 42.7082ZM40.6247 39.5832C39.7959 39.5832 39.001 39.9124 38.415 40.4985C37.8289 41.0845 37.4997 41.8794 37.4997 42.7082C37.4997 43.537 37.8289 44.3318 38.415 44.9179C39.001 45.5039 39.7959 45.8332 40.6247 45.8332C41.4535 45.8332 42.2483 45.5039 42.8344 44.9179C43.4204 44.3318 43.7497 43.537 43.7497 42.7082C43.7497 41.8794 43.4204 41.0845 42.8344 40.4985C42.2483 39.9124 41.4535 39.5832 40.6247 39.5832ZM65.6247 47.9165C62.8009 47.9167 60.0181 48.5923 57.5085 49.8867C54.9989 51.1811 52.8353 53.057 51.1981 55.3577C49.5609 57.6584 48.4976 60.3172 48.097 63.1124C47.6964 65.9076 47.97 68.7581 48.895 71.426C49.8201 74.094 51.3698 76.502 53.4147 78.4493C55.4597 80.3965 57.9407 81.8265 60.6507 82.6198C63.3608 83.4132 66.2212 83.547 68.9935 83.0101C71.7657 82.4731 74.3694 81.281 76.5872 79.5332L86.0247 88.9727C86.4153 89.3637 86.9452 89.5834 87.4979 89.5836C88.0505 89.5838 88.5806 89.3644 88.9715 88.9738C89.3625 88.5831 89.5822 88.0532 89.5824 87.5006C89.5826 86.9479 89.3632 86.4178 88.9726 86.0269L79.533 76.5873C81.5913 73.9761 82.8729 70.8382 83.2311 67.5326C83.5893 64.227 83.0097 60.8874 81.5585 57.8959C80.1073 54.9044 77.8432 52.3818 75.0253 50.617C72.2074 48.8521 68.9496 47.9163 65.6247 47.9165ZM52.083 65.6248C52.083 62.0334 53.5097 58.589 56.0493 56.0494C58.5888 53.5099 62.0332 52.0832 65.6247 52.0832C69.2161 52.0832 72.6605 53.5099 75.2001 56.0494C77.7396 58.589 79.1663 62.0334 79.1663 65.6248C79.1663 69.2163 77.7396 72.6607 75.2001 75.2002C72.6605 77.7398 69.2161 79.1665 65.6247 79.1665C62.0332 79.1665 58.5888 77.7398 56.0493 75.2002C53.5097 72.6607 52.083 69.2163 52.083 65.6248Z" fill="black"/>
</svg>
